<?xml version="1.0" encoding="UTF-8"?>
<svg xmlns="http://www.w3.org/2000/svg" version="1.1" viewBox="0 0 800 800">
  <!-- Generator: Adobe Illustrator 29.4.0, SVG Export Plug-In . SVG Version: 2.1.0 Build 152)  -->
  <defs>
    <style>
      .st0 {
        fill: none;
        stroke: #000;
        stroke-linecap: round;
        stroke-miterlimit: 133.33;
        stroke-width: 33.33px;
      }

      .st1 {
        fill: #c4c3b3;
      }
    </style>
  </defs>
  <g id="Layer_2">
    <path id="Combined-Shape" class="st1" d="M593.23,497.8c4.88-4.88,12.8-4.88,17.68,0,4.88,4.88,4.88,12.8,0,17.68h0l-8.84,8.84c-11.79,58.93-26.52,97.23-44.19,114.9-26.52,26.52-63.98,24.41-88.39,0-24.41-24.41-26.52-61.87,0-88.39,17.68-17.68,55.98-32.41,114.9-44.19h0l8.84-8.84ZM159.25,492.8c3.45-5.98,11.1-8.03,17.08-4.58h0l10.83,6.25c59.97-3.87,100.78.45,122.43,12.95,32.48,18.75,40.14,55.48,22.88,85.38-17.26,29.89-52.9,41.63-85.38,22.88-21.65-12.5-45.79-45.68-72.43-99.55h0l-10.83-6.25c-5.98-3.45-8.03-11.1-4.58-17.08ZM412.52,238.7c6.9,0,12.5,5.6,12.5,12.5h0v12.5c33.33,50,50,87.5,50,112.5,0,37.5-27.98,62.5-62.5,62.5s-62.5-25-62.5-62.5c0-25,16.67-62.5,50-112.5h0v-12.5c0-6.9,5.6-12.5,12.5-12.5ZM580.98,205.82c33.34-8.93,66.84,7.97,76.55,44.19,6.47,24.15.08,64.68-19.18,121.61h0l3.24,12.07c1.79,6.67-2.17,13.52-8.84,15.31s-13.52-2.17-15.31-8.84h0l-3.24-12.07c-45.14-39.67-70.94-71.58-77.41-95.73-9.71-36.22,10.85-67.61,44.19-76.55ZM235.9,141.7l2.5.41c6.67,1.79,10.63,8.64,8.84,15.31h0l-3.24,12.07c19.26,56.92,25.65,97.46,19.18,121.61-9.71,36.22-43.2,53.13-76.55,44.19s-53.9-40.32-44.19-76.55c6.47-24.15,32.27-56.06,77.41-95.73h0l3.24-12.07c1.79-6.67,8.64-10.63,15.31-8.84l-2.5-.41Z"/>
  </g>
  <g id="Layer_1">
    <path id="Combined-Shape1" data-name="Combined-Shape" class="st0" d="M593.23,497.8c4.88-4.88,12.8-4.88,17.68,0,4.88,4.88,4.88,12.8,0,17.68h0l-8.84,8.84c-11.79,58.93-26.52,97.23-44.19,114.9-26.52,26.52-63.98,24.41-88.39,0-24.41-24.41-26.52-61.87,0-88.39,17.68-17.68,55.98-32.41,114.9-44.19h0l8.84-8.84ZM159.25,492.8c3.45-5.98,11.1-8.03,17.08-4.58h0l10.83,6.25c59.97-3.87,100.78.45,122.43,12.95,32.48,18.75,40.14,55.48,22.88,85.38-17.26,29.89-52.9,41.63-85.38,22.88-21.65-12.5-45.79-45.68-72.43-99.55h0l-10.83-6.25c-5.98-3.45-8.03-11.1-4.58-17.08ZM412.52,238.7c6.9,0,12.5,5.6,12.5,12.5h0v12.5c33.33,50,50,87.5,50,112.5,0,37.5-27.98,62.5-62.5,62.5s-62.5-25-62.5-62.5c0-25,16.67-62.5,50-112.5h0v-12.5c0-6.9,5.6-12.5,12.5-12.5ZM580.98,205.82c33.34-8.93,66.84,7.97,76.55,44.19,6.47,24.15.08,64.68-19.18,121.61h0l3.24,12.07c1.79,6.67-2.17,13.52-8.84,15.31s-13.52-2.17-15.31-8.84h0l-3.24-12.07c-45.14-39.67-70.94-71.58-77.41-95.73-9.71-36.22,10.85-67.61,44.19-76.55ZM235.25,133.83c3.63-.25,7.24.8,9.76,3.44,2.33,2.45,3.44,5.8,4.47,9.02,1.43,4.45,2.82,9.43.76,13.62-.92,1.87-2.45,3.37-3.4,5.22-2.69,5.25-.09,11.53,2.32,16.91,14.47,32.26,23.47,73.83,14.03,109.04-9.71,36.22-43.2,53.13-76.55,44.19s-53.9-40.32-44.19-76.54c5.31-19.83,19.44-37.04,32.76-52.11,10.5-11.88,22-22.68,33.47-33.59,6.2-5.9,8.76-8.68,11.1-15.07,2.48-6.76-.95-12.99,5.28-19.48,2.63-2.74,6.42-4.4,10.19-4.67Z"/>
  </g>
</svg>